<mxfile modified="2020-01-10T10:40:47.073Z" host="www.draw.io" agent="Mozilla/5.0 (Windows NT 10.0; Win64; x64) AppleWebKit/537.36 (KHTML, like Gecko) Chrome/79.0.3945.88 Safari/537.36" etag="frWf9QhQbQxbWsf0X4zu" version="12.5.1" type="github">
  <diagram name="Page-1" id="97a40813-6b03-0c74-37c1-0168de264b11">
    <mxGraphModel dx="850" dy="466" grid="1" gridSize="10" guides="1" tooltips="1" connect="1" arrows="1" fold="1" page="1" pageScale="1" pageWidth="1000" pageHeight="500" background="#ffffff" math="0" shadow="0">
      <root>
        <mxCell id="0"/>
        <mxCell id="1" parent="0"/>
        <mxCell id="lcEnlKudX72qXeoctP-Z-1" value="" style="shape=image;verticalLabelPosition=bottom;labelBackgroundColor=#ffffff;verticalAlign=top;aspect=fixed;imageAspect=0;image=https://lively-kernel.org/lively4/lively4-jens/doc/tools/media/container.png;" vertex="1" parent="1">
          <mxGeometry x="30" y="70" width="218.95" height="160" as="geometry"/>
        </mxCell>
        <mxCell id="lcEnlKudX72qXeoctP-Z-3" value="" style="shape=image;verticalLabelPosition=bottom;labelBackgroundColor=#ffffff;verticalAlign=top;aspect=fixed;imageAspect=0;image=https://lively-kernel.org/lively4/lively4-jens/doc/tools/media/container-edit.png;" vertex="1" parent="1">
          <mxGeometry x="160" y="132.5" width="156.97" height="113.5" as="geometry"/>
        </mxCell>
        <mxCell id="lcEnlKudX72qXeoctP-Z-6" value="" style="shape=image;verticalLabelPosition=bottom;labelBackgroundColor=#ffffff;verticalAlign=top;aspect=fixed;imageAspect=0;image=https://lively-kernel.org/lively4/lively4-jens/doc/tools/media/drawboard.png;" vertex="1" parent="1">
          <mxGeometry x="40" y="310" width="160.35" height="160" as="geometry"/>
        </mxCell>
        <mxCell id="lcEnlKudX72qXeoctP-Z-13" value="" style="shape=image;verticalLabelPosition=bottom;labelBackgroundColor=#ffffff;verticalAlign=top;aspect=fixed;imageAspect=0;image=https://lively-kernel.org/lively4/lively4-jens/doc/tools/media/test-runner.png;" vertex="1" parent="1">
          <mxGeometry x="570" y="40.25" width="207.6" height="129.75" as="geometry"/>
        </mxCell>
        <mxCell id="lcEnlKudX72qXeoctP-Z-16" value="" style="shape=image;verticalLabelPosition=bottom;labelBackgroundColor=#ffffff;verticalAlign=top;aspect=fixed;imageAspect=0;image=https://lively-kernel.org/lively4/lively4-jens/doc/tools/media/workspace.png;" vertex="1" parent="1">
          <mxGeometry x="272.22" y="210" width="167.74" height="90" as="geometry"/>
        </mxCell>
        <mxCell id="lcEnlKudX72qXeoctP-Z-17" value="browse and edit" style="text;html=1;" vertex="1" parent="1">
          <mxGeometry x="30" y="234" width="110" height="30" as="geometry"/>
        </mxCell>
        <mxCell id="lcEnlKudX72qXeoctP-Z-18" value=".. and source code" style="text;html=1;" vertex="1" parent="1">
          <mxGeometry x="160" y="280" width="120" height="30" as="geometry"/>
        </mxCell>
        <mxCell id="lcEnlKudX72qXeoctP-Z-21" value="experiment with code snippets" style="text;html=1;" vertex="1" parent="1">
          <mxGeometry x="270" y="340" width="190" height="30" as="geometry"/>
        </mxCell>
        <mxCell id="lcEnlKudX72qXeoctP-Z-7" value="" style="shape=image;verticalLabelPosition=bottom;labelBackgroundColor=#ffffff;verticalAlign=top;aspect=fixed;imageAspect=0;image=https://lively-kernel.org/lively4/lively4-jens/doc/tools/media/inspector.png;" vertex="1" parent="1">
          <mxGeometry x="450" y="234" width="249.6" height="156" as="geometry"/>
        </mxCell>
        <mxCell id="lcEnlKudX72qXeoctP-Z-22" value="explore objects" style="text;html=1;" vertex="1" parent="1">
          <mxGeometry x="460" y="370" width="110" height="30" as="geometry"/>
        </mxCell>
        <mxCell id="lcEnlKudX72qXeoctP-Z-11" value="" style="shape=image;verticalLabelPosition=bottom;labelBackgroundColor=#ffffff;verticalAlign=top;aspect=fixed;imageAspect=0;image=https://lively-kernel.org/lively4/lively4-jens/doc/tools/media/sync.png;" vertex="1" parent="1">
          <mxGeometry x="590" y="295" width="230.58" height="145" as="geometry"/>
        </mxCell>
        <mxCell id="lcEnlKudX72qXeoctP-Z-23" value="collaborate on github" style="text;html=1;" vertex="1" parent="1">
          <mxGeometry x="610" y="440" width="140" height="30" as="geometry"/>
        </mxCell>
        <mxCell id="lcEnlKudX72qXeoctP-Z-24" value="run tests" style="text;html=1;" vertex="1" parent="1">
          <mxGeometry x="580" y="170" width="70" height="30" as="geometry"/>
        </mxCell>
        <mxCell id="lcEnlKudX72qXeoctP-Z-9" value="" style="shape=image;verticalLabelPosition=bottom;labelBackgroundColor=#ffffff;verticalAlign=top;aspect=fixed;imageAspect=0;image=https://lively-kernel.org/lively4/lively4-jens/doc/tools/media/search.png;" vertex="1" parent="1">
          <mxGeometry x="650" y="78.5" width="230.22" height="143" as="geometry"/>
        </mxCell>
        <mxCell id="lcEnlKudX72qXeoctP-Z-25" value="search in project" style="text;html=1;" vertex="1" parent="1">
          <mxGeometry x="770.22" y="221.5" width="110" height="30" as="geometry"/>
        </mxCell>
        <mxCell id="lcEnlKudX72qXeoctP-Z-26" value="draw sketches" style="text;html=1;" vertex="1" parent="1">
          <mxGeometry x="50" y="469.71000000000004" width="100" height="30" as="geometry"/>
        </mxCell>
      </root>
    </mxGraphModel>
  </diagram>
</mxfile>
